<?xml version="1.0" encoding="utf-8"?>
<!DOCTYPE svg PUBLIC "-//W3C//DTD SVG 1.0//EN" "http://www.w3.org/TR/2001/REC-SVG-20010904/DTD/svg10.dtd">
<svg version="1.0" xmlns="http://www.w3.org/2000/svg" width="1531px" height="1531px" viewBox="0 0 1531 1531" preserveAspectRatio="xMidYMid meet">
 <g fill="#ffffff">
  <path d="M0 765.50 l0 -765.50 765.50 0 765.50 0 0 765.50 0 765.50 -765.50 0 -765.50 0 0 -765.50z m457.51 667.57 c14.95 -5.08 30.95 -21.68 35.43 -36.63 5.83 -19.44 1.05 -37.08 -14.35 -52.48 -12.86 -12.86 -22.73 -17.04 -39.77 -16.75 -16.15 0.30 -26.76 4.34 -37.83 14.65 -14.50 13.46 -21.23 30.05 -18.24 45.75 6.73 35.58 41.86 56.81 74.76 45.45z m325.19 1.50 c18.84 -4.93 34.54 -18.99 41.27 -36.63 9.12 -24.37 -4.93 -54.72 -31.25 -66.98 -7.48 -3.59 -10.32 -4.04 -23.47 -4.04 -13.16 0 -16 0.45 -23.62 4.04 -10.47 4.93 -23.17 16.60 -28.41 26.16 -2.09 4.04 -4.63 11.21 -5.68 16.15 -1.50 7.63 -1.35 10.47 0.75 18.69 5.53 21.38 20.93 36.63 43.21 42.61 10.32 2.69 16.45 2.69 27.21 0z m133.36 0 c14.95 -4.49 26.02 -14.95 30.95 -29.75 1.94 -5.98 2.39 -13.90 2.39 -42.31 l0 -34.84 -8.82 0 -8.82 0 -0.60 37.83 c-0.45 36.03 -0.60 37.98 -3.89 44.11 -4.93 9.27 -13.46 12.86 -27.96 11.96 -13.31 -0.90 -19.14 -4.19 -23.62 -13.16 -3.14 -6.28 -3.29 -8.97 -3.74 -43.66 l-0.60 -37.08 -8.82 0 -8.82 0 0 35.14 c0 31.40 0.30 35.88 2.99 43.06 8.67 23.17 34.99 35.88 59.36 28.71z m120.06 -0.75 c10.76 -2.99 19.44 -9.87 23.47 -18.84 3.44 -7.63 3.59 -8.82 1.94 -14.80 -2.09 -7.77 -8.97 -15.10 -17.19 -18.84 -3.29 -1.50 -13.01 -4.34 -21.53 -6.58 -23.77 -5.98 -27.06 -8.37 -27.06 -20.03 0 -4.19 1.05 -7.18 3.59 -10.17 3.44 -4.04 4.19 -4.19 19.44 -4.63 11.06 -0.45 18.09 0.15 23.47 1.79 4.34 1.20 8.37 1.94 8.97 1.50 0.60 -0.30 1.79 -2.54 2.54 -5.08 1.64 -4.34 1.50 -4.34 -6.88 -7.77 -7.18 -2.84 -11.06 -3.44 -24.97 -3.29 -18.24 0.30 -23.92 1.94 -32.89 9.87 -6.28 5.38 -11.21 14.35 -11.21 19.89 0 5.53 3.44 12.86 8.37 17.49 5.83 5.38 14.65 8.97 33.94 14.05 8.97 2.24 17.94 5.38 19.89 7.03 3.29 2.54 3.74 3.74 3.29 11.96 -0.45 7.92 -0.90 9.42 -4.63 12.11 -6.13 4.49 -32 4.34 -45.45 -0.30 -5.08 -1.79 -9.72 -3.29 -10.02 -3.29 -1.05 0 -5.83 9.12 -5.08 9.72 1.64 1.50 13.90 5.98 22.88 8.37 10.91 2.99 24.97 2.84 35.14 -0.15z m102.12 0.60 c11.51 -2.99 15.70 -5.08 21.68 -11.21 9.72 -10.02 10.62 -22.73 2.24 -32.74 -5.38 -6.58 -13.46 -10.17 -34.84 -16 -22.73 -6.13 -25.42 -8.22 -25.42 -19.14 0 -6.28 0.75 -8.37 3.89 -11.36 3.44 -3.14 5.38 -3.59 18.24 -4.19 8.67 -0.30 17.79 0.30 22.73 1.50 10.91 2.69 10.47 2.69 12.71 -2.69 l1.94 -4.63 -9.12 -3.59 c-13.01 -4.78 -37.23 -4.78 -47.69 0.15 -13.90 6.58 -23.47 21.38 -20.63 31.55 3.59 12.41 12.56 18.24 38.87 25.42 25.27 6.88 26.91 8.07 26.91 19.59 0 8.37 -1.94 11.21 -9.72 14.20 -8.67 3.29 -29.45 2.09 -42.16 -2.39 -4.78 -1.64 -8.97 -2.99 -9.57 -2.99 -0.90 0 -4.34 6.88 -4.34 8.82 0 1.94 14.35 7.63 24.52 9.87 12.41 2.69 18.99 2.69 29.75 -0.15z m121.55 0.30 c11.36 -2.99 22.13 -9.42 29.90 -17.64 15.55 -16.60 19.29 -37.38 10.17 -56.52 -7.92 -16.75 -19.14 -26.61 -36.33 -32.15 -11.96 -3.89 -29.45 -2.54 -41.27 2.99 -11.51 5.53 -23.62 17.64 -28.86 28.71 -13.90 30.50 5.38 65.79 40.82 74.61 10.02 2.39 16.45 2.54 25.57 0z m-1229.88 -53.23 c0 -52.78 0 -53.82 -2.99 -53.82 -2.99 0 -2.99 1.05 -2.99 53.82 0 52.78 0 53.82 2.99 53.82 2.99 0 2.99 -1.05 2.99 -53.82z m49.34 13.46 l0 -40.37 6.43 0 6.28 0.15 19.44 32 c10.76 17.64 19.74 32.15 20.18 32.15 0.45 0 9.57 -14.80 20.18 -32.89 l19.44 -32.74 5.98 -0.15 5.98 0 -0.60 40.37 c-0.45 36.63 -0.30 40.37 2.09 41.27 1.35 0.60 2.99 0.45 3.59 -0.30 0.60 -0.75 0.90 -25.12 0.45 -53.97 -0.45 -43.06 -1.05 -52.78 -2.69 -52.78 -1.05 0 -2.69 1.50 -3.74 3.44 -0.90 1.79 -11.51 19.89 -23.62 40.37 l-21.83 36.93 -5.38 0 -5.38 0 -24.37 -40.37 c-13.31 -22.13 -25.27 -40.37 -26.31 -40.37 -1.79 0 -2.09 9.42 -2.09 53.82 0 52.78 0 53.82 2.99 53.82 2.99 0 2.99 -1.05 2.99 -40.37z m158.48 0.60 l0 -39.62 7.03 0.45 7.03 0.45 18.39 30.65 c10.17 16.89 18.84 30.80 19.44 30.95 1.05 0.30 5.68 -7.18 23.32 -37.23 2.39 -3.89 4.04 -7.18 3.59 -7.18 -0.45 0 -5.23 7.77 -10.91 17.19 -10.02 16.89 -10.32 17.19 -15.70 17.19 l-5.38 0 -24.37 -40.37 c-13.46 -22.13 -25.27 -40.37 -26.46 -40.37 -1.64 0 -1.94 9.87 -1.94 53.82 0 52.78 0 53.82 2.99 53.82 2.84 0 2.99 -1.05 2.99 -39.77z m110.04 -12.86 c-0.45 -29.01 -0.75 -53.23 -0.90 -53.82 0 -0.75 -0.90 -1.20 -1.79 -1.20 -1.05 0 -5.08 5.68 -9.12 12.41 -3.89 6.73 -8.82 15.10 -10.91 18.69 -2.09 3.44 -3.59 6.28 -3.14 6.28 0.45 0 2.39 -2.69 4.19 -5.98 3.14 -5.53 3.89 -5.98 9.87 -5.98 l6.43 0 0 41.12 c0 40.82 0 41.12 3.14 41.12 l3.14 0 -0.90 -52.63z m320.40 48.74 c14.50 -4.34 24.07 -17.94 20.93 -29.75 -1.79 -6.58 -9.42 -15.40 -14.20 -16.60 -5.38 -1.35 -4.93 -9.27 0.90 -14.80 2.39 -2.39 5.53 -7.03 6.88 -10.62 2.24 -5.98 2.24 -6.58 -0.60 -13.01 -1.64 -3.59 -5.38 -8.37 -8.22 -10.62 -9.42 -7.18 -16.45 -8.37 -50.68 -8.37 l-31.10 0 0 53.08 0 53.08 34.09 0 c26.46 0 35.88 -0.45 42.01 -2.39z m740.23 -4.34 l0 -6.73 -28.41 0 -28.41 0 0 -46.35 0 -46.35 -9.72 0 -9.72 0 0 53.08 0 53.08 38.13 0 38.13 0 0 -6.73z m104.66 0 l0 -6.73 -31.40 0 -31.55 0 0.45 -16.75 0.45 -16.89 26.61 -0.45 26.46 -0.30 0 -5.98 0 -5.98 -26.16 0 c-30.50 0 -28.11 1.64 -27.36 -19.44 l0.45 -12.71 30.35 -0.45 30.20 -0.30 0 -6.73 0 -6.73 -39.62 0 -39.62 0 0 53.08 0 53.08 40.37 0 40.37 0 0 -6.73z m-952.39 -36.63 c0 -2.84 -1.05 -2.99 -18.69 -2.99 -17.64 0 -18.69 0.15 -18.69 2.99 0 2.84 1.05 2.99 18.69 2.99 17.64 0 18.69 -0.15 18.69 -2.99z m226.81 -159.23 c5.68 -2.84 8.37 -5.38 11.06 -10.47 l3.59 -6.73 -2.99 -5.68 c-3.44 -6.43 -13.90 -12.26 -27.51 -15.25 -4.63 -1.05 -10.17 -2.84 -12.41 -3.89 -3.74 -1.94 -4.19 -2.99 -4.19 -10.32 0 -10.91 2.54 -12.71 18.99 -12.71 6.73 0 13.90 0.60 15.85 1.35 2.99 1.20 4.04 0.90 4.63 -0.75 2.54 -6.43 -25.87 -9.12 -37.38 -3.44 -6.88 3.29 -12.56 10.62 -12.56 16.15 0 10.02 7.48 15.55 29.30 21.68 7.33 2.09 14.05 4.93 15.10 6.28 1.05 1.50 1.94 5.53 1.94 8.97 0 5.08 -0.75 7.03 -4.04 9.57 -3.74 2.99 -5.53 3.29 -16.89 2.54 -7.03 -0.30 -15.25 -1.79 -18.24 -2.99 -5.38 -2.24 -5.68 -2.24 -5.68 0.45 0 2.54 2.99 4.19 14.95 8.07 6.58 2.09 19.14 0.75 26.46 -2.84z m34.84 -110.64 c47.69 -7.18 90.60 -21.08 131.12 -42.46 99.72 -52.63 172.24 -141.44 203.04 -248.64 6.88 -23.47 6.88 -23.92 -0.90 -23.32 l-6.13 0.45 -3.59 14.05 c-15.70 62.20 -45.30 117.67 -87.61 164.01 -11.51 12.56 -12.71 12.26 -36.48 -11.51 -15.25 -15.25 -19.89 -18.99 -21.08 -17.49 -1.35 1.50 2.54 6.28 16.89 21.23 24.37 25.42 24.37 25.12 3.89 42.31 -55.32 46.50 -114.08 73.86 -186.59 86.72 -21.98 3.89 -26.46 4.19 -59.66 4.04 -52.03 -0.30 -82.23 -4.93 -125.89 -19.14 -45.90 -15.10 -90.75 -40.67 -128.58 -73.26 -11.66 -10.02 -12.41 -10.91 -12.41 -16.60 0 -5.68 0.90 -7.03 18.54 -24.52 17.04 -17.04 20.03 -21.08 15.55 -21.08 -0.75 0 -10.02 8.37 -20.48 18.69 -23.92 23.47 -24.07 23.47 -37.83 7.92 -24.67 -27.81 -42.76 -54.57 -58.16 -85.67 -14.80 -30.05 -22.58 -52.03 -30.35 -86.27 -0.90 -3.74 -1.64 -4.19 -6.88 -4.19 -7.48 0 -7.48 0 -0.90 24.22 13.01 47.40 36.78 94.04 69.07 136.06 15.70 20.18 48.29 53.23 67.88 68.78 63.09 49.64 136.80 79.84 214.55 87.91 18.24 1.79 63.69 0.60 82.98 -2.24z m-46.50 -49.64 c0.75 -3.14 4.19 -24.82 7.63 -48.29 3.44 -23.47 8.52 -57.41 11.36 -75.50 5.38 -34.39 12.26 -79.54 16.30 -107.65 3.44 -24.67 2.84 -23.17 9.57 -23.17 6.13 0 10.91 3.14 71.47 47.54 l22.88 16.75 -9.57 -13.90 c-50.09 -72.36 -54.72 -79.54 -54.72 -84.92 0 -6.58 -2.24 -5.83 32.15 -10.91 74.61 -11.06 99.72 -14.95 124.84 -18.99 15.25 -2.54 45 -7.03 66.23 -10.17 21.38 -3.29 39.47 -6.58 40.37 -7.48 3.89 -3.89 -3.29 -5.98 -37.83 -11.21 -19.29 -2.84 -72.06 -11.06 -117.37 -18.09 -45.15 -7.03 -85.07 -13.16 -88.51 -13.76 -6.28 -0.90 -6.43 -1.05 -6.43 -6.58 0 -5.53 15.55 -31.25 69.37 -115.27 2.99 -4.78 5.23 -8.67 4.93 -8.67 -0.30 0 -26.91 17.79 -59.36 39.62 -51.28 34.54 -59.66 39.62 -64.59 39.62 -4.63 0 -5.83 -0.60 -6.43 -3.29 -0.45 -1.94 -3.74 -16.15 -7.63 -31.85 -3.74 -15.55 -11.06 -47.10 -16.30 -69.97 -5.23 -22.73 -10.17 -42.61 -10.91 -43.96 -1.35 -2.09 -1.64 -2.09 -3.14 0.75 -0.90 1.79 -9.42 36.78 -18.99 77.60 -22.13 95.84 -19.14 85.67 -25.27 85.67 -3.29 0 -7.18 -1.64 -11.51 -4.93 -3.59 -2.69 -23.92 -17.64 -45.30 -33.19 -21.38 -15.40 -39.92 -28.86 -41.12 -29.75 -1.20 -0.90 3.59 6.73 10.62 17.04 49.49 72.51 50.68 74.31 50.68 79.84 0 6.28 1.50 5.68 -25.42 9.27 -10.32 1.35 -19.29 2.99 -20.18 3.74 -0.75 0.75 -4.63 1.35 -8.67 1.35 -4.04 0 -15.55 1.35 -25.57 2.99 -9.87 1.50 -29.45 4.63 -43.51 6.73 -13.90 2.09 -30.05 4.78 -35.88 5.98 -5.68 1.20 -18.54 3.14 -28.41 4.34 -21.98 2.84 -66.38 9.72 -69.82 10.76 -3.74 1.20 -3.29 4.93 0.75 6.43 1.79 0.75 7.03 1.79 11.51 2.39 4.49 0.45 25.12 3.59 45.60 6.88 20.63 3.29 69.97 10.91 109.89 17.04 39.92 6.13 74.01 11.51 75.95 11.96 2.69 0.60 3.29 1.79 3.29 6.13 0 4.49 -5.68 14.35 -32.59 56.52 -38.13 59.80 -39.62 62.20 -38.57 62.20 0.45 0 25.72 -16.45 55.92 -36.63 49.19 -32.59 55.92 -36.63 61.15 -36.63 l5.98 0 1.05 9.42 c2.09 17.34 35.14 230.55 36.78 236.23 0.90 2.99 2.54 5.53 3.74 5.53 1.20 0 2.69 -2.39 3.59 -5.53z m441.66 -302.31 c0.45 -1.64 0.30 -3.29 -0.15 -3.74 -0.45 -0.45 -10.47 -0.90 -22.28 -0.90 l-21.38 0 0 -13.46 0 -13.46 18.69 0 c17.64 0 18.69 -0.15 18.69 -2.99 0 -2.84 -1.05 -2.99 -18.69 -2.99 l-18.84 0 0.45 -13.01 0.45 -13.16 20.63 -0.45 c19.29 -0.30 20.48 -0.60 20.48 -3.29 0 -2.84 -1.20 -2.99 -26.91 -2.99 l-26.91 0 0 35.58 c0 19.59 0.45 36.18 1.05 36.63 0.45 0.60 12.86 1.05 27.51 1.05 24.82 0 26.46 -0.15 27.21 -2.84z m-896.77 -22.58 l7.77 -23.17 5.98 -0.45 6.13 -0.45 7.92 23.92 8.07 24.07 6.13 0 6.28 0 11.36 -34.99 c6.28 -19.29 11.36 -35.43 11.36 -35.88 0 -0.45 -1.64 -0.90 -3.74 -0.90 -3.44 0 -4.19 1.64 -12.26 26.91 l-8.67 26.91 -4.78 0 -4.63 0 -8.67 -26.91 -8.52 -26.91 -4.93 0 c-5.53 0 -5.08 -0.90 -16 32.15 l-6.58 19.44 -5.08 0.45 -5.08 0.45 -8.67 -26.31 c-8.67 -25.72 -8.82 -26.16 -13.01 -26.16 l-4.34 0 12.11 36.03 12.11 35.88 5.98 -0.45 5.98 -0.45 7.77 -23.17z m74.01 -95.24 c11.81 -60.25 35.28 -111.83 72.36 -159.68 6.43 -8.22 14.80 -18.09 18.54 -21.98 11.06 -11.36 12.11 -10.91 36.33 13.16 16 16 20.63 19.74 21.98 18.24 1.20 -1.64 -2.84 -6.58 -18.54 -22.73 -24.37 -25.27 -24.37 -24.97 -9.87 -38.42 32.89 -30.95 80.59 -59.36 127.98 -75.95 27.06 -9.57 61.30 -16.75 94.19 -19.74 24.22 -2.24 69.67 -0.90 94.79 2.99 71.02 10.76 137.55 41.56 191.38 88.36 12.71 11.21 13.76 12.41 13.76 17.64 0 5.08 -1.50 7.03 -19.74 25.27 -17.49 17.64 -19.59 20.03 -17.64 22.13 2.09 1.94 4.49 0 21.53 -17.19 18.24 -18.39 19.44 -19.44 25.12 -19.44 5.23 0 6.73 0.90 12.86 7.63 42.31 47.10 74.61 109.59 87.02 168.80 1.94 8.67 3.59 16.60 3.89 17.64 0.30 1.05 2.99 1.79 6.58 1.79 7.48 0 7.63 -1.05 1.50 -24.07 -14.95 -57.86 -40.37 -108.84 -77.15 -155.34 -12.71 -16 -46.80 -49.94 -63.39 -63.39 -28.26 -22.58 -71.77 -47.99 -102.71 -59.95 l-10.91 -4.19 0 -73.86 0 -73.71 5.68 0 c4.78 0 7.18 1.35 14.35 7.63 l8.67 7.77 3.59 -3.74 3.74 -3.59 -29.30 -26.61 -29.15 -26.61 0 -38.13 0 -38.28 -9.12 1.05 c-5.08 0.45 -13.16 0.90 -17.94 0.90 l-8.82 0 0 16.45 0 16.45 -4.93 0 c-5.53 0 -7.63 -1.64 -47.25 -37.83 l-22.43 -20.48 -15.40 13.90 c-48.89 44.55 -133.36 121.25 -142.63 129.63 l-10.91 9.72 3.59 3.59 3.59 3.74 8.97 -7.77 c7.18 -6.28 9.87 -7.77 14.20 -7.77 l5.38 0 0 74.16 c0 72.66 0 74.16 -2.99 74.91 -7.18 1.94 -46.80 20.78 -59.80 28.41 -75.35 44.55 -133.81 109.59 -168.20 187.04 -11.66 26.46 -18.99 49.94 -26.91 86.72 -0.75 2.99 -0.30 3.29 5.83 3.29 l6.73 0 1.64 -8.52z m354.34 -215 l0 -21.68 6.43 0 c6.28 0 6.28 0.15 24.07 21.68 15.70 18.84 18.54 21.68 22.28 21.68 l4.34 0 -0.45 -35.88 -0.60 -35.88 -4.78 0 -4.93 0 0 23.32 0 23.17 -5.53 -0.45 c-5.23 -0.45 -6.88 -1.94 -23.92 -22.88 -15.40 -18.69 -19.14 -22.58 -22.88 -22.88 l-4.49 -0.45 0 35.88 0 36.03 5.23 0 5.23 0 0 -21.68z"/>
  <path d="M417.59 1429.78 c-8.97 -3.14 -20.48 -14.05 -25.42 -24.07 -3.89 -7.77 -4.19 -10.02 -4.19 -24.97 0 -14.95 0.30 -17.19 4.19 -24.97 5.08 -10.32 15.10 -19.59 24.52 -22.73 4.49 -1.64 12.26 -2.39 22.13 -2.39 9.87 0 17.64 0.75 22.13 2.39 9.42 3.14 19.44 12.41 24.52 22.73 3.89 7.77 4.19 9.87 4.19 25.72 0 14.50 -0.45 18.24 -3.14 24.07 -4.34 9.12 -13.90 18.69 -23.47 23.17 -6.73 3.14 -9.87 3.59 -23.47 3.44 -9.87 0 -18.09 -0.90 -21.98 -2.39z"/>
  <path d="M754.74 1420.36 c-7.03 -2.09 -14.05 -7.18 -17.94 -13.01 -5.98 -9.12 -7.63 -16 -6.88 -30.20 0.45 -10.76 1.35 -14.35 4.49 -19.74 5.23 -8.82 13.46 -14.35 24.37 -16.45 21.98 -4.04 41.27 4.93 47.25 22.13 2.99 8.37 2.69 28.11 -0.60 36.63 -3.29 8.52 -13.46 18.24 -21.38 20.48 -6.73 1.94 -23.32 1.94 -29.30 0.15z"/>
  <path d="M1231.68 1420.21 c-7.48 -2.24 -16.75 -10.47 -20.78 -18.99 -2.84 -5.83 -3.44 -9.42 -3.44 -20.48 0 -14.65 1.94 -20.63 8.82 -28.86 5.53 -6.58 13.31 -10.32 24.07 -11.51 19.89 -2.24 35.28 4.93 42.01 19.74 3.44 7.48 3.74 9.57 3.14 23.62 -0.45 14.35 -0.90 16 -5.08 21.98 -2.39 3.44 -7.33 8.37 -10.91 10.91 -5.83 4.04 -7.63 4.49 -19.29 4.78 -7.18 0.15 -15.40 -0.45 -18.54 -1.20z"/>
  <path d="M611.50 1403.92 l0 -17.94 23.92 0 c32 0 35.88 1.94 35.88 17.94 0 15.85 -4.34 17.94 -36.63 17.94 l-23.17 0 0 -17.94z"/>
  <path d="M611.50 1356.97 l0 -17.34 19.14 0 c29.90 0 34.69 2.54 34.69 18.09 0 6.13 -0.75 9.42 -2.84 11.96 -2.84 3.44 -3.74 3.59 -26.91 4.04 l-24.07 0.45 0 -17.19z"/>
  <path d="M767.89 978.26 c-0.60 -11.36 -0.60 -58.01 0 -103.76 l1.05 -83.13 6.88 -4.34 c3.74 -2.39 11.66 -8.22 17.64 -12.86 8.52 -6.88 11.96 -8.67 16.15 -8.67 4.93 0 5.23 0.30 5.23 5.23 0 2.84 -2.24 17.79 -5.08 33.19 -4.19 23.17 -26.46 162.07 -30.20 187.79 -0.90 6.73 -1.20 7.03 -5.83 7.03 l-4.78 0 -1.05 -20.48z"/>
  <path d="M645.89 855.36 c0 -4.49 10.62 -23.17 31.70 -55.77 5.23 -8.07 15.70 -24.37 23.32 -36.33 l14.05 -21.68 6.43 0 c6.28 0 6.58 0.30 9.87 7.03 5.83 11.96 17.34 21.53 31.70 26.31 1.79 0.75 2.54 2.54 2.54 6.13 0 5.08 -0.45 5.38 -55.02 41.86 -43.21 28.86 -56.07 36.78 -59.80 36.78 -4.34 0 -4.78 -0.45 -4.78 -4.34z"/>
  <path d="M628.70 759.37 c-24.67 -4.04 -61.30 -9.87 -81.48 -13.01 l-36.63 -5.53 0 -5.98 0 -5.98 99.13 -0.45 98.98 -0.30 0 5.08 c0 3.74 -2.39 9.12 -8.82 19.14 l-8.67 13.90 -8.82 0.30 c-4.78 0 -29.01 -3.14 -53.67 -7.18z"/>
  <path d="M755.78 761.91 c-7.03 -2.99 -13.90 -10.91 -15.85 -17.79 -2.69 -10.02 -0.90 -25.42 3.59 -32.29 6.13 -9.27 14.65 -12.56 30.65 -11.81 11.81 0.45 13.90 0.90 18.84 4.78 8.67 6.58 11.81 15.25 11.06 29.45 -0.90 14.35 -5.08 21.83 -14.95 26.61 -7.77 3.74 -26.02 4.34 -33.34 1.05z"/>
  <path d="M834.28 731.71 c0 -3.89 2.39 -9.27 9.12 -20.18 7.92 -12.71 9.72 -14.80 13.16 -14.80 2.09 0 27.51 3.74 56.22 8.22 28.86 4.49 71.02 10.91 93.89 14.50 l41.56 6.43 -0.45 5.23 -0.45 5.23 -106.45 0.45 -106.60 0.30 0 -5.38z"/>
  <path d="M812.75 717.06 c-5.23 -12.11 -16.60 -23.32 -27.51 -27.21 -7.18 -2.54 -7.77 -3.14 -7.77 -7.48 0 -4.19 3.74 -9.57 6.58 -9.57 0.60 0 3.89 -2.24 7.33 -5.08 3.44 -2.69 17.04 -12.41 30.20 -21.23 13.16 -8.97 33.19 -22.43 44.40 -30.05 17.49 -11.96 21.38 -13.90 26.46 -13.90 5.98 0 6.13 0.15 6.13 4.93 -0.15 3.44 -3.89 10.62 -13.46 25.72 -7.33 11.51 -23.62 37.23 -36.18 57.26 -21.68 34.39 -23.02 36.18 -27.36 36.18 -4.19 0 -4.93 -0.75 -8.82 -9.57z"/>
  <path d="M731.41 689.70 c0.45 -3.14 5.68 -26.91 11.66 -52.78 5.98 -25.87 13.01 -56.52 15.70 -68.03 l4.78 -20.93 6.13 -0.45 6.28 -0.45 0 61.75 0 61.75 -9.42 5.98 c-5.08 3.29 -12.71 8.82 -17.04 12.41 -5.98 4.78 -9.12 6.28 -13.31 6.28 -5.38 0 -5.38 0 -4.78 -5.53z"/>
  <path d="M653.37 263.59 l0 -82.08 27.36 -24.67 c14.95 -13.61 40.22 -36.63 56.22 -51.28 27.21 -24.67 29.45 -26.31 34.84 -26.31 6.43 0 4.93 -1.20 93.44 79.69 l25.87 23.62 0 80.74 0 80.59 -5.53 0 c-3.14 0 -16.15 -2.39 -28.86 -5.23 -12.71 -2.84 -30.05 -5.98 -38.42 -7.03 l-15.40 -1.79 0 -49.04 0 -49.04 -30.95 0.30 -31.10 0.45 -0.45 48.89 -0.30 48.74 -4.19 0.90 c-2.24 0.45 -8.37 1.20 -13.76 1.64 -5.38 0.60 -20.48 3.44 -33.64 6.28 -13.16 2.84 -26.46 5.68 -29.45 5.98 l-5.68 0.75 0 -82.08z m136.06 -99.13 l0 -16.45 -17.94 0 -17.94 0 0 14.05 c0 7.77 0.45 15.10 0.90 16.45 0.75 1.94 3.74 2.39 17.94 2.39 l17.04 0 0 -16.45z"/>
 </g>
 <g fill="#03294c">
  <path d="M421.47 1439.20 c-23.77 -6.88 -39.47 -24.67 -43.51 -49.64 -3.29 -19.74 3.14 -37.98 18.54 -52.18 12.26 -11.36 21.38 -14.50 42.31 -14.80 14.20 -0.15 17.64 0.45 25.42 3.44 12.56 5.08 27.36 19.89 32.15 32.29 4.34 11.51 4.93 30.65 1.20 42.61 -4.78 15.10 -20.63 31.40 -35.58 36.78 -9.12 3.14 -31.70 4.04 -40.52 1.50z m37.08 -14.95 c9.57 -4.49 19.14 -14.05 23.32 -23.17 2.54 -5.23 3.29 -9.72 3.29 -19.59 0 -10.91 -0.60 -13.90 -4.19 -21.23 -5.08 -10.32 -15.10 -19.59 -24.52 -22.73 -8.97 -2.99 -26.31 -2.99 -35.28 0 -9.42 3.14 -19.44 12.41 -24.52 22.73 -3.59 7.18 -4.19 10.47 -4.19 20.48 0 10.02 0.60 13.31 4.19 20.48 4.93 10.02 16.45 20.93 25.42 24.07 10.32 3.74 27.21 3.14 36.48 -1.05z"/>
  <path d="M751 1439.05 c-33.19 -8.97 -51.88 -40.97 -43.21 -73.71 4.34 -16.15 17.34 -31.40 33.49 -38.87 7.92 -3.74 10.02 -4.04 27.96 -4.04 18.99 0 19.74 0.15 29.30 4.78 41.71 20.63 45 81.33 5.68 104.66 -15.10 8.97 -36.03 11.81 -53.23 7.18z m28.41 -23.32 c7.63 -2.09 17.19 -10.91 20.93 -19.14 3.74 -8.52 3.89 -22.58 0.45 -30.80 -6.43 -15.10 -22.13 -23.17 -38.87 -20.03 -15.40 2.84 -25.87 14.80 -27.36 31.10 -2.39 26.61 19.74 45.90 44.85 38.87z"/>
  <path d="M884.36 1439.20 c-16.30 -5.23 -26.76 -14.50 -32.15 -28.86 -2.69 -7.33 -2.99 -11.66 -2.99 -47.54 l0 -39.62 13.31 0 13.31 0 0.60 37.08 c0.45 34.69 0.60 37.38 3.74 43.66 1.94 3.74 5.38 7.92 7.77 9.42 12.41 7.33 28.56 3.44 34.84 -8.22 3.29 -6.13 3.44 -8.07 3.89 -44.11 l0.60 -37.83 13.31 0 13.31 0 0 39.32 c0 32.59 -0.45 40.67 -2.39 46.80 -4.93 14.80 -16 25.27 -30.95 29.75 -9.12 2.69 -27.96 2.69 -36.18 0.15z"/>
  <path d="M996.50 1438.45 c-11.51 -2.99 -23.77 -8.07 -25.27 -10.47 -1.35 -2.09 6.13 -16.45 8.97 -17.64 1.35 -0.45 8.07 1.05 15.10 3.29 23.92 8.07 42.31 5.23 43.51 -6.28 0.60 -6.73 -4.19 -9.72 -23.17 -14.50 -33.49 -8.67 -42.31 -16.15 -42.31 -36.03 0 -10.02 3.59 -17.79 11.21 -24.37 9.57 -8.52 14.20 -9.72 37.38 -9.87 18.69 -0.15 21.83 0.30 29.60 3.29 4.78 1.94 9.12 4.63 9.57 5.83 0.45 1.20 -1.05 6.43 -3.29 11.66 -3.89 9.12 -4.19 9.57 -7.18 7.48 -9.12 -5.68 -32.89 -8.67 -42.01 -5.23 -5.68 2.09 -9.12 8.22 -7.18 12.71 2.24 4.93 7.63 7.33 25.87 11.96 19.44 4.93 26.31 7.92 32 13.90 13.46 14.35 9.72 38.72 -7.77 49.04 -13.90 8.22 -35.14 10.32 -55.02 5.23z"/>
  <path d="M1103.84 1439.05 c-11.81 -2.54 -27.36 -9.42 -27.36 -12.11 0 -3.89 8.07 -18.54 10.32 -18.54 1.20 0 5.68 1.64 10.02 3.74 4.49 2.09 13.46 4.63 19.89 5.53 10.47 1.50 12.86 1.35 18.84 -0.90 7.48 -2.99 10.47 -6.88 9.12 -12.26 -1.20 -4.63 -6.28 -7.18 -26.31 -12.56 -9.12 -2.54 -19.89 -6.13 -23.92 -8.22 -18.24 -9.27 -21.68 -32.29 -7.33 -47.84 10.17 -11.06 16.75 -13.16 40.22 -13.31 17.79 -0.15 21.23 0.30 29.60 3.44 5.23 1.94 9.87 4.49 10.32 5.68 0.45 1.05 -1.05 6.28 -3.29 11.51 l-4.04 9.57 -8.52 -4.04 c-7.18 -3.29 -10.32 -3.89 -22.88 -3.89 -13.16 0 -14.80 0.30 -18.24 3.59 -2.09 2.09 -3.89 5.08 -3.89 6.88 0 5.83 5.98 9.27 25.42 14.65 21.38 5.83 29.45 9.42 34.84 16 4.04 4.78 7.03 13.01 7.03 19.59 0 10.47 -8.37 24.07 -17.94 29.01 -12.41 6.43 -34.24 8.22 -51.88 4.49z"/>
  <path d="M1229.73 1439.20 c-28.26 -7.03 -45.90 -29.45 -45.90 -58.46 0 -26.02 15.40 -47.54 40.07 -56.22 11.21 -4.04 34.39 -3.89 45.90 0 16.45 5.68 26.76 15.10 34.54 31.55 4.34 8.97 4.63 10.91 4.63 25.42 0 13.90 -0.45 16.75 -4.04 24.22 -12.71 27.21 -44.26 41.12 -75.20 33.49z m35.43 -27.21 c10.76 -7.48 14.95 -15.10 15.85 -27.96 0.60 -9.72 0.15 -12.26 -3.14 -19.44 -12.41 -27.21 -51.73 -26.02 -63.54 1.94 -3.29 7.92 -2.84 22.43 1.20 30.50 3.89 8.22 13.16 16.60 20.63 18.69 10.02 2.69 21.98 1.20 29.01 -3.74z"/>
  <path d="M19.44 1381.49 l0 -58.31 7.48 0 7.48 0 0 58.31 0 58.31 -7.48 0 -7.48 0 0 -58.31z"/>
  <path d="M68.78 1381.49 l0 -58.31 6.58 0 6.43 0 24.37 40.37 c13.46 22.28 24.82 40.37 25.27 40.37 0.75 0 41.86 -68.63 46.35 -77.30 1.50 -2.84 2.99 -3.44 8.37 -3.44 l6.73 0 0.30 44.85 c0.15 24.67 0.45 50.68 0.45 58.01 l0 13.01 -7.48 0 -7.48 0 0 -40.82 c0 -26.16 -0.60 -40.67 -1.50 -40.67 -0.75 0 -10.47 15.25 -21.53 33.64 -18.39 30.95 -20.33 33.64 -24.07 33.64 -3.89 0 -5.83 -2.69 -24.07 -32.89 -11.06 -17.94 -20.93 -32.74 -21.83 -32.89 -1.50 0 -1.94 8.97 -1.94 40.37 l0 40.37 -7.48 0 -7.48 0 0 -58.31z"/>
  <path d="M227.26 1381.49 l0 -58.31 6.43 0 6.58 0 24.37 40.37 c13.46 22.28 24.82 40.37 25.27 40.37 0.60 0 11.66 -18.09 24.82 -40.22 l23.92 -40.37 6.13 0 6.13 -0.15 0.90 14.65 c0.45 7.92 0.90 34.24 1.05 58.31 l0.30 43.66 -7.63 0 -7.63 0 -0.30 -28.71 c-0.15 -15.85 -0.15 -34.39 0.15 -41.12 0.30 -9.72 0 -12.41 -1.64 -12.41 -1.05 0 -10.91 15.10 -21.98 33.79 -26.16 43.96 -22.43 43.96 -47.99 1.35 -10.91 -18.09 -19.89 -31.55 -21.38 -31.85 -2.39 -0.45 -2.54 2.69 -2.54 39.17 l0 39.77 -7.48 0 -7.48 0 0 -58.31z"/>
  <path d="M1446.97 1438.60 l-19.14 -0.45 0 -57.41 0 -57.56 44.11 0 44.11 0 0 11.21 0 11.21 -30.20 0.30 -30.35 0.45 -0.45 8.07 c-0.90 16 -2.54 15.10 27.36 15.10 l26.16 0 0 10.47 0 10.47 -26.46 0.30 -26.61 0.45 -0.45 12.41 -0.45 12.26 31.40 0 31.25 0 0.60 11.21 0.45 11.21 -6.73 0.15 c-21.23 0.45 -47.99 0.60 -64.59 0.15z"/>
  <path d="M587.58 1380.89 l0 -57.71 35.58 0 c26.46 0 37.53 0.60 42.76 2.09 23.62 7.18 30.80 32.44 14.20 49.64 l-4.49 4.63 3.59 1.05 c5.23 1.20 12.56 10.17 14.65 17.64 3.89 14.35 -2.54 28.71 -15.85 35.43 -7.33 3.89 -7.77 3.89 -48.89 4.34 l-41.56 0.45 0 -57.56z m71.77 33.79 c9.27 -4.63 9.87 -15.85 1.05 -21.23 -4.19 -2.54 -7.48 -2.99 -24.52 -2.99 l-19.89 0 0 13.46 0 13.46 19.14 0 c15.10 0 20.03 -0.60 24.22 -2.69z m-1.35 -49.49 c5.83 -7.18 2.24 -16.89 -7.33 -19.59 -2.99 -0.75 -12.11 -1.50 -20.03 -1.50 l-14.65 0 0 12.86 0 12.86 19.59 -0.60 c18.39 -0.45 19.74 -0.60 22.43 -4.04z"/>
  <path d="M1327.66 1380.74 l0 -57.56 14.20 0 14.20 0 0 46.35 0 46.35 28.41 0 28.41 0 0 11.21 0 11.21 -42.61 0 -42.61 0 0 -57.56z"/>
  <path d="M518.81 1390.46 l0 -7.48 23.17 0 23.17 0 0 7.48 0 7.48 -23.17 0 -23.17 0 0 -7.48z"/>
  <path d="M752.79 1237.36 c-3.29 -1.05 -8.07 -2.99 -10.76 -4.34 l-4.78 -2.54 2.84 -6.28 c1.50 -3.59 3.59 -6.58 4.49 -6.88 0.90 -0.30 4.93 0.75 8.97 2.54 4.04 1.79 11.21 3.59 16 4.04 7.48 0.75 9.27 0.45 12.86 -2.39 8.07 -6.43 4.19 -11.06 -13.01 -15.85 -23.92 -6.73 -29.75 -11.96 -29.90 -26.16 0 -8.97 4.78 -16.75 13.16 -20.63 8.82 -4.34 34.54 -4.49 43.96 -0.15 3.44 1.50 6.28 3.14 6.28 3.59 0 0.45 -1.50 3.74 -3.14 7.33 l-3.29 6.58 -7.18 -2.69 c-14.50 -5.53 -29.75 -2.69 -29.75 5.38 0 4.34 4.49 6.88 16.45 9.72 21.23 4.93 29.90 12.26 29.90 25.27 0 9.57 -4.93 17.34 -14.05 21.83 -6.28 3.14 -9.42 3.74 -20.18 3.59 -7.18 0 -15.55 -0.90 -18.84 -1.94z"/>
  <path d="M734.85 1127.32 c-77.75 -8.07 -151.46 -38.28 -214.55 -87.91 -19.59 -15.55 -52.18 -48.59 -67.88 -68.78 -24.97 -32.29 -46.20 -70.42 -59.80 -107.05 -5.98 -15.70 -15.85 -52.48 -15.85 -58.46 0 -3.59 0.30 -3.74 11.21 -3.74 10.91 0 11.21 0.15 12.11 4.19 15.25 66.53 42.91 120.36 88.51 171.94 l9.57 10.91 20.03 -19.59 c16.45 -16.15 20.63 -19.44 24.37 -19.44 3.29 0 5.38 1.20 7.77 4.63 l3.29 4.63 -20.48 20.48 c-11.21 11.21 -20.33 21.08 -20.33 21.83 0 2.09 21.98 20.78 38.13 32.44 31.40 22.73 67.28 41.12 102.86 52.93 42.31 13.76 74.01 18.84 121.40 18.99 28.26 0.30 33.79 -0.15 55.17 -3.89 72.36 -12.86 133.51 -41.27 187.04 -87.17 7.48 -6.28 13.61 -11.96 13.90 -12.56 0.15 -0.60 -8.97 -10.76 -20.48 -22.58 l-20.93 -21.53 4.78 -4.78 c2.54 -2.69 5.98 -4.93 7.63 -4.93 1.94 0 10.62 7.48 23.47 20.33 l20.33 20.18 7.48 -8.22 c42.46 -46.35 72.06 -101.67 87.76 -164.01 l3.59 -14.05 11.51 -0.45 11.66 -0.45 -1.05 7.63 c-0.60 4.19 -3.29 15.70 -6.13 25.42 -37.83 131.72 -139.64 235.33 -272.11 277.05 -15.10 4.78 -41.71 10.62 -62.05 13.76 -18.84 2.84 -72.96 4.19 -91.95 2.24z"/>
  <path d="M766.55 1080.22 c-1.35 -1.20 -2.69 -4.04 -3.14 -6.28 -1.50 -7.03 -34.99 -224.87 -36.18 -234.73 -0.45 -5.23 -1.64 -9.42 -2.39 -9.42 -1.50 0 -9.57 5.23 -89.26 58.16 -24.97 16.60 -45.75 29.75 -46.20 29.45 -0.90 -1.05 17.19 -30.50 53.53 -87.46 19.29 -30.35 31.10 -50.24 30.20 -50.83 -0.90 -0.45 -22.73 -4.19 -48.44 -8.07 -25.72 -4.04 -69.67 -10.91 -97.63 -15.25 -27.96 -4.49 -61.90 -9.87 -75.50 -11.81 -26.91 -4.04 -29.30 -5.23 -27.66 -13.61 1.05 -5.68 1.94 -6.13 16.30 -8.22 6.73 -0.90 22.28 -3.29 34.54 -5.23 12.41 -2.09 28.71 -4.34 36.18 -5.08 7.63 -0.75 14.50 -1.79 15.10 -2.24 0.75 -0.45 14.65 -2.84 31.10 -5.38 16.30 -2.54 37.98 -5.98 47.84 -7.48 10.02 -1.64 21.68 -2.99 25.72 -2.99 4.19 0 7.92 -0.60 8.37 -1.35 0.45 -0.60 10.32 -2.54 21.83 -4.04 11.51 -1.50 21.68 -3.14 22.73 -3.74 0.90 -0.60 -12.41 -21.68 -35.43 -55.62 -20.48 -30.05 -36.78 -55.17 -36.48 -55.77 0.30 -0.75 1.94 -1.35 3.59 -1.35 2.39 0.15 72.21 49.64 103.91 73.71 6.13 4.63 6.73 4.93 7.77 2.39 0.75 -1.64 9.27 -37.68 19.14 -80.29 9.87 -42.46 18.54 -78.64 19.44 -80.29 1.05 -2.09 3.14 -2.99 6.73 -2.99 6.13 0 5.53 -1.94 16.30 45.60 11.96 51.73 24.67 104.21 25.57 105.11 0.45 0.45 30.50 -19.14 66.98 -43.51 57.71 -38.87 72.81 -47.84 72.81 -43.66 0 0.45 -8.67 14.50 -19.29 31.10 -43.81 69.07 -65.93 104.36 -65.93 105.56 0 0.75 2.84 1.64 6.43 2.09 3.44 0.60 43.36 6.73 88.51 13.76 45.30 7.03 98.08 15.25 117.37 18.09 29.60 4.49 35.58 5.83 37.83 8.37 2.99 3.59 3.29 7.18 0.60 10.76 -1.50 2.09 -9.72 3.74 -40.82 8.37 -21.23 3.29 -51.13 7.92 -66.38 10.32 -15.25 2.54 -44.11 7.03 -64.29 10.02 -70.27 10.47 -91.35 13.76 -92.25 14.65 -0.90 0.90 3.29 7.18 53.38 80.14 15.55 22.58 27.81 41.41 27.51 41.71 -0.30 0.45 -2.54 -0.75 -4.78 -2.39 -21.53 -16 -100.17 -72.96 -104.96 -76.10 -3.29 -2.24 -6.43 -3.59 -7.03 -2.99 -0.45 0.45 -2.09 8.82 -3.59 18.54 -6.28 42.76 -9.27 62.94 -14.05 93 -2.84 17.64 -8.52 55.32 -12.71 83.73 -9.27 63.09 -8.82 61 -11.51 63.54 -2.84 2.84 -8.52 2.84 -11.36 0z m21.53 -175.68 c6.58 -42.31 14.35 -89.71 17.19 -105.26 2.84 -15.55 4.78 -28.56 4.49 -28.86 -0.30 -0.45 -5.53 3.29 -11.66 8.07 -5.98 4.78 -14.05 10.62 -17.79 13.01 l-6.88 4.34 -1.05 79.39 c-1.05 79.84 0 126.79 2.39 113.03 0.60 -3.74 6.58 -41.41 13.31 -83.73z m-80.44 -87.17 c29.30 -19.59 53.08 -36.18 52.63 -36.93 -0.45 -0.60 -2.54 -1.64 -4.78 -2.09 -10.91 -2.69 -25.87 -16.75 -30.35 -28.41 -0.75 -2.09 -2.39 -3.89 -3.59 -3.89 -1.20 0 -8.37 9.72 -16.15 21.68 -7.63 11.96 -18.09 28.26 -23.32 36.33 -16 24.67 -31.85 51.43 -29.90 50.24 1.05 -0.75 26.02 -17.34 55.47 -36.93z m-12.26 -69.52 c4.93 -7.63 8.82 -14.20 8.82 -14.65 0 -0.30 -42.61 -0.45 -94.49 -0.30 -60.85 0.30 -94.64 1.05 -94.64 1.94 0 0.75 16.45 4.04 36.63 7.03 20.18 3.14 56.81 8.97 81.48 13.01 24.67 4.04 46.80 7.18 49.19 7.18 3.74 -0.30 5.53 -2.09 13.01 -14.20z m89.26 8.52 c17.79 -8.67 20.18 -34.84 4.04 -47.10 -11.81 -8.97 -32.29 -5.53 -40.37 6.73 -16 24.22 9.87 53.08 36.33 40.37z m258.06 -24.97 c0.30 -0.60 -15.55 -3.59 -35.43 -6.73 -52.63 -8.07 -141.74 -21.83 -146.37 -22.73 -3.59 -0.60 -4.63 0.60 -13.01 14.20 -5.08 8.07 -9.12 15.10 -9.12 15.55 0 1.35 203.04 1.05 203.93 -0.30z m-196.16 -48.89 c11.96 -18.84 27.51 -43.51 34.54 -54.57 7.03 -11.06 12.26 -20.33 11.51 -20.63 -0.75 -0.30 -10.62 5.83 -21.98 13.46 -11.36 7.63 -31.40 21.23 -44.55 30.20 -13.16 8.82 -26.76 18.54 -30.20 21.23 -3.44 2.84 -6.73 5.08 -7.33 5.08 -0.60 0 -2.39 1.05 -3.89 2.54 -2.54 2.24 -2.24 2.54 5.83 5.83 11.21 4.63 21.68 14.95 26.91 26.91 3.44 8.07 4.34 8.97 5.83 6.88 0.90 -1.35 11.51 -17.94 23.32 -36.93z m-101.52 1.94 c4.34 -3.59 11.96 -9.12 17.04 -12.41 l9.42 -5.98 0 -57.26 c0 -42.46 -0.45 -57.26 -1.64 -56.81 -1.05 0.30 -7.48 25.12 -14.20 55.02 -6.88 30.05 -14.20 61.15 -16 69.22 -1.94 7.92 -3.29 14.50 -2.99 14.50 0.30 0 4.04 -2.84 8.37 -6.28z"/>
  <path d="M1158.27 774.92 c-0.60 -0.45 -1.05 -18.99 -1.05 -41.12 l0 -40.07 31.40 0 31.40 0 0 7.48 0 7.33 -20.48 0.45 -20.63 0.45 -0.45 8.67 -0.45 8.52 18.84 0 18.69 0 0 7.48 0 7.48 -18.69 0 -18.69 0 0 8.97 0 8.82 21.98 0.45 c24.52 0.45 24.22 0.30 22.13 11.06 l-0.90 5.08 -31.10 0 c-17.04 0 -31.55 -0.45 -32 -1.05z"/>
  <path d="M283.47 736.05 c-7.03 -21.23 -12.86 -39.47 -12.86 -40.37 0 -1.35 2.99 -1.94 9.57 -1.94 l9.72 0 8.52 26.16 c4.78 14.35 9.12 25.57 9.72 24.97 0.60 -0.60 3.44 -8.82 6.58 -18.24 3.14 -9.42 6.88 -20.78 8.52 -24.97 l2.84 -7.92 9.42 0 9.42 0 8.67 27.21 8.67 27.21 8.82 -27.21 8.82 -27.21 9.57 0 c5.38 0 9.72 0.45 9.72 0.90 0 0.45 -5.83 18.69 -12.86 40.37 l-12.86 39.47 -10.76 0 -10.62 0 -8.07 -24.07 c-4.49 -13.90 -8.52 -23.77 -9.57 -23.32 -0.90 0.30 -5.08 10.91 -9.27 23.62 l-7.77 23.02 -10.47 0.45 -10.47 0.45 -13.01 -38.57z"/>
  <path d="M374.68 659.05 c21.08 -119.01 90.75 -218.74 196.46 -281.23 13.01 -7.63 52.63 -26.46 59.80 -28.41 2.99 -0.75 2.99 -2.24 2.99 -70.42 0 -38.28 -0.45 -69.67 -0.90 -69.67 -0.60 0 -5.83 4.34 -11.81 9.72 -5.98 5.38 -11.21 9.72 -11.66 9.72 -1.50 0 -14.50 -14.20 -14.50 -15.85 0 -0.90 5.53 -6.58 12.41 -12.71 10.62 -9.42 94.34 -85.37 144.13 -130.82 8.52 -7.77 17.04 -14.35 19.14 -14.95 3.29 -0.75 5.38 0.45 13.16 7.77 15.70 14.80 51.58 47.10 54.72 49.49 3.14 2.09 3.14 1.94 3.14 -14.35 l0 -16.60 6.43 0 c3.59 0 13.76 -0.45 22.43 -1.05 l16 -0.90 0 38.13 0 38.28 31.55 28.71 31.55 28.86 -8.22 8.22 -8.22 8.22 -10.76 -9.87 c-5.98 -5.53 -11.36 -10.02 -12.11 -10.02 -0.75 0 -1.35 30.50 -1.35 69.22 l0 69.37 10.91 4.19 c30.95 11.96 74.46 37.38 102.71 59.95 16.60 13.46 50.68 47.40 63.39 63.39 29.15 36.93 52.03 78.19 66.68 120.51 7.33 21.23 14.20 47.40 15.70 59.36 l1.05 8.52 -11.36 0 c-7.92 0 -11.66 -0.60 -11.96 -1.79 -0.30 -1.05 -1.94 -8.97 -3.89 -17.64 -8.82 -41.86 -29.01 -88.66 -55.02 -127.83 -13.76 -20.48 -37.08 -48.59 -40.37 -48.59 -0.75 0 -10.76 9.42 -22.13 20.93 -11.51 11.51 -21.38 20.93 -21.98 20.93 -0.60 0 -4.04 -2.69 -7.48 -5.83 l-6.28 -5.98 22.28 -22.43 22.43 -22.43 -2.99 -3.29 c-1.50 -1.64 -8.22 -7.63 -14.80 -13.31 -65.49 -55.32 -145.03 -85.97 -231.74 -89.26 -35.43 -1.20 -71.02 2.69 -107.80 12.11 -56.52 14.35 -116.17 46.65 -156.39 84.47 l-10.32 9.57 7.48 6.88 c4.04 3.74 13.76 13.76 21.83 22.13 14.35 15.10 14.35 15.25 11.96 18.99 -1.35 1.94 -4.19 4.78 -6.28 6.13 l-3.89 2.54 -21.83 -21.83 -21.83 -21.83 -7.03 7.03 c-3.74 4.04 -12.11 13.90 -18.54 22.13 -37.08 47.84 -60.55 99.43 -72.36 159.68 l-1.64 8.52 -11.81 0 -11.81 0 0.75 -4.78z m311.58 -325.34 c11.96 -2.54 26.02 -4.93 31.40 -5.53 5.38 -0.45 11.51 -1.20 13.76 -1.64 l4.19 -0.90 0.30 -48.74 0.45 -48.89 35.58 -0.45 35.43 -0.30 0 49.04 0 49.04 15.40 1.79 c8.37 1.05 25.72 4.19 38.42 7.03 12.71 2.84 23.62 5.23 24.37 5.23 0.60 0 1.05 -34.24 1.05 -76.10 l0 -76.25 -25.87 -23.62 c-63.84 -58.31 -87.61 -79.69 -88.96 -79.69 -0.75 0 -14.35 11.81 -30.35 26.31 -16 14.65 -41.27 37.68 -56.22 51.28 l-27.36 24.67 0 77.45 0 77.45 3.44 -1.35 c1.79 -0.75 13.01 -3.29 24.97 -5.83z"/>
  <path d="M749.95 183 c-0.45 -1.35 -0.90 -10.76 -0.90 -20.93 l0 -18.54 22.43 0 22.43 0 0 20.93 0 20.93 -21.53 0 c-18.24 0 -21.68 -0.30 -22.43 -2.39z"/>
  <path d="M734.10 421.62 l0 -40.37 8.67 0 8.67 0 17.64 21.53 c9.72 11.96 18.54 22.43 19.74 23.47 1.79 1.50 2.09 -1.64 2.09 -21.68 l0 -23.32 9.42 0 9.27 0 0.45 40.37 0.45 40.37 -8.67 0 -8.82 0 -17.94 -21.68 c-9.72 -11.81 -18.69 -21.68 -19.59 -21.68 -1.50 0 -1.94 5.38 -1.94 21.68 l0 21.68 -9.72 0 -9.72 0 0 -40.37z"/>
 </g>
</svg>